<svg width="32" height="32" viewBox="0 0 32 32" fill="none" xmlns="http://www.w3.org/2000/svg">
  <defs>
    <linearGradient id="gradient" x1="0%" y1="0%" x2="100%" y2="100%">
      <stop offset="0%" style="stop-color:#3b82f6;stop-opacity:1" />
      <stop offset="100%" style="stop-color:#d946ef;stop-opacity:1" />
    </linearGradient>
  </defs>
  
  <!-- Background circle with gradient -->
  <circle cx="16" cy="16" r="15" fill="url(#gradient)"/>
  
  <!-- Letter M -->
  <path d="M9 22V10L12 16L16 11L20 16L23 10V22H21V17L20 14L16 19L12 14L11 17V22H9Z" fill="white"/>
  
  <!-- Letter G -->
  <path d="M25 16C25 19.3 21.3 22 18 22C14.7 22 11 19.3 11 16C11 12.7 14.7 10 18 10C21.3 10 25 12.7 25 16ZM23 16C23 13.8 20.2 12 18 12C15.8 12 13 13.8 13 16C13 18.2 15.8 20 18 20C20.2 20 23 18.2 23 16ZM21 18H17V14H21V16H19V18H21Z" fill="white"/>
</svg> 